%TF.GenerationSoftware,Altium Limited,Altium Designer,24.4.1 (13)*%
G04 Layer_Physical_Order=2*
G04 Layer_Color=36540*
%FSLAX45Y45*%
%MOMM*%
%TF.SameCoordinates,F106AC90-439F-428E-8782-533256F23A0D*%
%TF.FilePolarity,Positive*%
%TF.FileFunction,Copper,L2,Inr,Signal*%
%TF.Part,Single*%
G01*
G75*
%TA.AperFunction,ComponentPad*%
%ADD38C,1.55000*%
%ADD39R,1.55000X1.55000*%
%TA.AperFunction,ViaPad*%
%ADD40C,1.52400*%
%TA.AperFunction,ComponentPad*%
%ADD41C,1.40000*%
%ADD42R,1.40000X1.40000*%
%ADD43C,2.36000*%
%TA.AperFunction,TestPad*%
%ADD44O,2.10000X1.00000*%
%ADD45C,0.65000*%
%ADD46O,1.80000X1.00000*%
%TA.AperFunction,ComponentPad*%
%ADD47R,1.65000X1.65000*%
%ADD48C,1.65000*%
%ADD49R,1.60000X1.60000*%
%ADD50C,1.60000*%
%TA.AperFunction,ViaPad*%
%ADD51C,0.45000*%
%ADD52C,0.40000*%
D38*
X2864000Y1585000D02*
D03*
X2610000D02*
D03*
D39*
X2356000D02*
D03*
D40*
X4080000Y180000D02*
D03*
Y1890000D02*
D03*
X200000D02*
D03*
Y180000D02*
D03*
D41*
X3275981Y1071016D02*
D03*
X3529981Y1173016D02*
D03*
Y969016D02*
D03*
Y765016D02*
D03*
X3275981Y867016D02*
D03*
D42*
Y1275016D02*
D03*
D43*
X3759981Y1620016D02*
D03*
Y420016D02*
D03*
D44*
X585350Y634200D02*
D03*
Y1498200D02*
D03*
D45*
X535350Y1355200D02*
D03*
Y777200D02*
D03*
D46*
X167350Y1498200D02*
D03*
Y634200D02*
D03*
D47*
X2483000Y1224000D02*
D03*
D48*
X2737000D02*
D03*
X2483000Y970000D02*
D03*
Y716000D02*
D03*
X2737000Y970000D02*
D03*
Y716000D02*
D03*
D49*
X1993000Y190000D02*
D03*
D50*
X2247000D02*
D03*
D51*
X990000Y1285000D02*
D03*
X3087500Y1500000D02*
D03*
X1330000Y887500D02*
D03*
X1622500Y745000D02*
D03*
X1545000Y912500D02*
D03*
Y820000D02*
D03*
X910000Y565000D02*
D03*
X1120000Y562500D02*
D03*
X381000Y96520D02*
D03*
X4170000Y310000D02*
D03*
Y990000D02*
D03*
Y650000D02*
D03*
Y1370000D02*
D03*
Y1710000D02*
D03*
X770000Y100000D02*
D03*
X2130000D02*
D03*
X1790000D02*
D03*
X1450000D02*
D03*
X3190000D02*
D03*
X2850000D02*
D03*
X2510000D02*
D03*
X3570000D02*
D03*
X3910000D02*
D03*
Y2010000D02*
D03*
X3570000D02*
D03*
X2510000D02*
D03*
X2850000D02*
D03*
X3190000D02*
D03*
X1450000D02*
D03*
X1790000D02*
D03*
X2130000D02*
D03*
X1110000D02*
D03*
X770000D02*
D03*
X430000D02*
D03*
X100000Y1690000D02*
D03*
Y420000D02*
D03*
X1840000Y750000D02*
D03*
X1630000Y670000D02*
D03*
Y590000D02*
D03*
X1562500Y425000D02*
D03*
X1845000Y1027500D02*
D03*
X1840000Y1195000D02*
D03*
X1590000Y1210000D02*
D03*
X1420000Y947500D02*
D03*
X1422500Y1120000D02*
D03*
X1700000Y1400000D02*
D03*
X1050000Y900000D02*
D03*
X797500Y635000D02*
D03*
X832500Y495000D02*
D03*
X1050000Y770000D02*
D03*
X1410000Y530000D02*
D03*
Y650000D02*
D03*
X1290000Y530000D02*
D03*
Y650000D02*
D03*
X1050000Y640000D02*
D03*
X1740000Y560000D02*
D03*
X1139312Y422034D02*
D03*
X1239400Y855200D02*
D03*
X1160000D02*
D03*
X1275000Y335215D02*
D03*
X1230000Y1460000D02*
D03*
X1100000D02*
D03*
D52*
X730000Y830000D02*
D03*
%TF.MD5,39a2ddbe42566142838aab7cdd814360*%
M02*
