%TF.GenerationSoftware,Altium Limited,Altium Designer,24.4.1 (13)*%
G04 Layer_Color=0*
%FSLAX45Y45*%
%MOMM*%
%TF.SameCoordinates,F106AC90-439F-428E-8782-533256F23A0D*%
%TF.FilePolarity,Positive*%
%TF.FileFunction,Plated,1,4,PTH,Drill*%
%TF.Part,Single*%
G01*
G75*
%TA.AperFunction,ComponentDrill*%
%ADD82C,1.02000*%
%TA.AperFunction,OtherDrill,Pad Free-1 (40.8mm,1.8mm)*%
%ADD83C,2.00000*%
%TA.AperFunction,OtherDrill,Pad Free-1 (40.8mm,18.9mm)*%
%ADD84C,2.00000*%
%TA.AperFunction,OtherDrill,Pad Free-1 (2mm,18.9mm)*%
%ADD85C,2.00000*%
%TA.AperFunction,OtherDrill,Pad Free-1 (2mm,1.8mm)*%
%ADD86C,2.00000*%
%TA.AperFunction,ComponentDrill*%
%ADD87C,0.90000*%
%ADD88O,1.70000X0.60000*%
%ADD89O,1.40000X0.60000*%
%ADD90C,1.10000*%
%ADD91C,1.10000*%
%TA.AperFunction,ViaDrill,NotFilled*%
%ADD92C,0.25000*%
D82*
X2864000Y1585000D02*
D03*
X2610000D02*
D03*
X2356000D02*
D03*
D83*
X4080000Y180000D02*
D03*
D84*
Y1890000D02*
D03*
D85*
X200000D02*
D03*
D86*
Y180000D02*
D03*
D87*
X3275981Y1071016D02*
D03*
Y1275016D02*
D03*
X3529981Y1173016D02*
D03*
Y969016D02*
D03*
Y765016D02*
D03*
X3275981Y867016D02*
D03*
D88*
X585350Y634200D02*
D03*
Y1498200D02*
D03*
D89*
X167350D02*
D03*
Y634200D02*
D03*
D90*
X2483000Y1224000D02*
D03*
X2737000D02*
D03*
X2483000Y970000D02*
D03*
Y716000D02*
D03*
X2737000Y970000D02*
D03*
Y716000D02*
D03*
D91*
X1993000Y190000D02*
D03*
X2247000D02*
D03*
D92*
X990000Y1285000D02*
D03*
X3087500Y1500000D02*
D03*
X1330000Y887500D02*
D03*
X1622500Y745000D02*
D03*
X1545000Y912500D02*
D03*
Y820000D02*
D03*
X910000Y565000D02*
D03*
X1120000Y562500D02*
D03*
X381000Y96520D02*
D03*
X4170000Y310000D02*
D03*
Y990000D02*
D03*
Y650000D02*
D03*
Y1370000D02*
D03*
Y1710000D02*
D03*
X770000Y100000D02*
D03*
X2130000D02*
D03*
X1790000D02*
D03*
X1450000D02*
D03*
X3190000D02*
D03*
X2850000D02*
D03*
X2510000D02*
D03*
X3570000D02*
D03*
X3910000D02*
D03*
Y2010000D02*
D03*
X3570000D02*
D03*
X2510000D02*
D03*
X2850000D02*
D03*
X3190000D02*
D03*
X1450000D02*
D03*
X1790000D02*
D03*
X2130000D02*
D03*
X1110000D02*
D03*
X770000D02*
D03*
X430000D02*
D03*
X100000Y1690000D02*
D03*
Y420000D02*
D03*
X730000Y830000D02*
D03*
X1840000Y750000D02*
D03*
X1630000Y670000D02*
D03*
Y590000D02*
D03*
X1562500Y425000D02*
D03*
X1845000Y1027500D02*
D03*
X1840000Y1195000D02*
D03*
X1590000Y1210000D02*
D03*
X1420000Y947500D02*
D03*
X1422500Y1120000D02*
D03*
X1700000Y1400000D02*
D03*
X1050000Y900000D02*
D03*
X797500Y635000D02*
D03*
X832500Y495000D02*
D03*
X1050000Y770000D02*
D03*
X1410000Y530000D02*
D03*
Y650000D02*
D03*
X1290000Y530000D02*
D03*
Y650000D02*
D03*
X1050000Y640000D02*
D03*
X1740000Y560000D02*
D03*
X1139312Y422034D02*
D03*
X1239400Y855200D02*
D03*
X1160000D02*
D03*
X1275000Y335215D02*
D03*
X1230000Y1460000D02*
D03*
X1100000D02*
D03*
%TF.MD5,c1fd6643ef858fc55244e9d59e08211a*%
M02*
