%TF.GenerationSoftware,Altium Limited,Altium Designer,24.4.1 (13)*%
G04 Layer_Color=8421504*
%FSLAX45Y45*%
%MOMM*%
%TF.SameCoordinates,F106AC90-439F-428E-8782-533256F23A0D*%
%TF.FilePolarity,Positive*%
%TF.FileFunction,Paste,Top*%
%TF.Part,Single*%
G01*
G75*
%TA.AperFunction,SMDPad,CuDef*%
%ADD11R,0.40000X0.50000*%
%ADD12R,1.40000X0.90000*%
%ADD13R,1.40000X1.10000*%
%ADD14R,0.30000X0.30000*%
%ADD15R,0.90000X0.30000*%
%ADD16R,0.30000X0.90000*%
%ADD18R,0.50000X0.40000*%
%ADD19R,0.57247X0.61535*%
%ADD20R,0.67248X0.66817*%
%ADD21R,0.65000X0.65000*%
%ADD22R,3.20000X1.00429*%
%ADD23R,0.89000X1.00429*%
%ADD25R,0.55000X0.60000*%
%ADD26R,0.60000X0.55000*%
%TA.AperFunction,TestPad*%
%ADD27R,1.15000X0.60000*%
%TA.AperFunction,SMDPad,CuDef*%
%ADD28R,0.60000X0.50000*%
%ADD29R,0.50000X0.70000*%
%TA.AperFunction,TestPad*%
%ADD30R,1.15000X0.30000*%
%TA.AperFunction,SMDPad,CuDef*%
%ADD31R,1.00000X0.97500*%
%ADD32R,0.46818X0.47247*%
%TA.AperFunction,NonConductor*%
%ADD57R,0.65000X0.70000*%
%ADD78R,0.75000X0.75000*%
D11*
X1161795Y1300000D02*
D03*
X1081795D02*
D03*
D12*
X860000Y985000D02*
D03*
Y1175000D02*
D03*
X1080000D02*
D03*
D13*
Y1005000D02*
D03*
D14*
X1225000Y715000D02*
D03*
X1475000D02*
D03*
X1225000Y465000D02*
D03*
X1475000D02*
D03*
D15*
X1195000Y665000D02*
D03*
Y615000D02*
D03*
Y565000D02*
D03*
Y515000D02*
D03*
X1505000D02*
D03*
Y565000D02*
D03*
Y615000D02*
D03*
Y665000D02*
D03*
D16*
X1275000Y435000D02*
D03*
X1325000D02*
D03*
X1375000D02*
D03*
X1425000D02*
D03*
Y745000D02*
D03*
X1375000D02*
D03*
X1325000D02*
D03*
X1275000D02*
D03*
D18*
X910000Y230000D02*
D03*
Y150000D02*
D03*
X1580000Y240000D02*
D03*
Y160000D02*
D03*
X910000Y440000D02*
D03*
Y360000D02*
D03*
D19*
X1040000Y232856D02*
D03*
Y147144D02*
D03*
X1450000Y242856D02*
D03*
Y157144D02*
D03*
X1760000Y1557144D02*
D03*
Y1642856D02*
D03*
X1440000Y1557144D02*
D03*
Y1642856D02*
D03*
X1600000Y1557144D02*
D03*
Y1642856D02*
D03*
X1040000Y442856D02*
D03*
Y357144D02*
D03*
X1650000Y417144D02*
D03*
Y502856D02*
D03*
D20*
X1180000Y240215D02*
D03*
Y139785D02*
D03*
D21*
X1320000Y250000D02*
D03*
Y150000D02*
D03*
D22*
X1930000Y640500D02*
D03*
D23*
X1701000Y1299500D02*
D03*
X1930000D02*
D03*
X2159000D02*
D03*
D25*
X850000Y787500D02*
D03*
Y872500D02*
D03*
D26*
X930000Y1285000D02*
D03*
X845000D02*
D03*
D27*
X642850Y826200D02*
D03*
Y1306200D02*
D03*
Y1386200D02*
D03*
Y746200D02*
D03*
D28*
X1910000Y1645000D02*
D03*
Y1555000D02*
D03*
X1290000Y1645000D02*
D03*
Y1555000D02*
D03*
D29*
X1150000Y1645000D02*
D03*
Y1555000D02*
D03*
D30*
X642850Y1091200D02*
D03*
Y1041200D02*
D03*
Y991200D02*
D03*
Y1141200D02*
D03*
Y1191200D02*
D03*
Y1241200D02*
D03*
Y941200D02*
D03*
Y891200D02*
D03*
D31*
X1290000Y1008750D02*
D03*
Y1171250D02*
D03*
D32*
X2717285Y1845000D02*
D03*
X2797715D02*
D03*
X2517715D02*
D03*
X2437285D02*
D03*
D57*
X582500Y430000D02*
D03*
X717500D02*
D03*
D78*
X1302484Y637495D02*
D03*
X1397484D02*
D03*
X1302484Y542495D02*
D03*
X1397484D02*
D03*
%TF.MD5,3b93534270806e5ee54ac8d616bad304*%
M02*
