%TF.GenerationSoftware,Altium Limited,Altium Designer,24.4.1 (13)*%
G04 Layer_Color=128*
%FSLAX45Y45*%
%MOMM*%
%TF.SameCoordinates,F106AC90-439F-428E-8782-533256F23A0D*%
%TF.FilePolarity,Positive*%
%TF.FileFunction,Drillmap*%
%TF.Part,Single*%
G01*
G75*
%TA.AperFunction,NonConductor*%
%ADD94C,0.12700*%
D94*
X2813000Y1585000D02*
X2915000D01*
X2864000Y1534000D02*
Y1636000D01*
X2559000Y1585000D02*
X2661000D01*
X2610000Y1534000D02*
Y1636000D01*
X2305000Y1585000D02*
X2407000D01*
X2356000Y1534000D02*
Y1636000D01*
X3980000Y180000D02*
X4180000D01*
X4080000Y80000D02*
Y280000D01*
X3980000Y1890000D02*
X4180000D01*
X4080000Y1790000D02*
Y1990000D01*
X100000Y1890000D02*
X300000D01*
X200000Y1790000D02*
Y1990000D01*
X100000Y180000D02*
X300000D01*
X200000Y80000D02*
Y280000D01*
X3230981Y1071016D02*
X3320981D01*
X3275981Y1026016D02*
Y1116016D01*
X3230981Y1275016D02*
X3320981D01*
X3275981Y1230016D02*
Y1320016D01*
X3484981Y1173016D02*
X3574981D01*
X3529981Y1128016D02*
Y1218016D01*
X3641981Y1620016D02*
X3877981D01*
X3759981Y1502016D02*
Y1738016D01*
X3641981Y420016D02*
X3877981D01*
X3759981Y302016D02*
Y538016D01*
X3484981Y969016D02*
X3574981D01*
X3529981Y924016D02*
Y1014016D01*
X3484981Y765016D02*
X3574981D01*
X3529981Y720016D02*
Y810016D01*
X3230981Y867016D02*
X3320981D01*
X3275981Y822016D02*
Y912016D01*
X555350Y634200D02*
X615350D01*
X585350Y604200D02*
Y664200D01*
X555350Y1498200D02*
X615350D01*
X585350Y1468200D02*
Y1528200D01*
X502850Y1355200D02*
X567850D01*
X535350Y1322700D02*
Y1387700D01*
X502850Y777200D02*
X567850D01*
X535350Y744700D02*
Y809700D01*
X137350Y1498200D02*
X197350D01*
X167350Y1468200D02*
Y1528200D01*
X137350Y634200D02*
X197350D01*
X167350Y604200D02*
Y664200D01*
X2428000Y1224000D02*
X2538000D01*
X2483000Y1169000D02*
Y1279000D01*
X2682000Y1224000D02*
X2792000D01*
X2737000Y1169000D02*
Y1279000D01*
X2428000Y970000D02*
X2538000D01*
X2483000Y915000D02*
Y1025000D01*
X2428000Y716000D02*
X2538000D01*
X2483000Y661000D02*
Y771000D01*
X2682000Y970000D02*
X2792000D01*
X2737000Y915000D02*
Y1025000D01*
X2682000Y716000D02*
X2792000D01*
X2737000Y661000D02*
Y771000D01*
X1938000Y190000D02*
X2048000D01*
X1993000Y135000D02*
Y245000D01*
X2192000Y190000D02*
X2302000D01*
X2247000Y135000D02*
Y245000D01*
X977500Y1285000D02*
X1002500D01*
X990000Y1272500D02*
Y1297500D01*
X3075000Y1500000D02*
X3100000D01*
X3087500Y1487500D02*
Y1512500D01*
X1317500Y887500D02*
X1342500D01*
X1330000Y875000D02*
Y900000D01*
X1610000Y745000D02*
X1635000D01*
X1622500Y732500D02*
Y757500D01*
X1532500Y912500D02*
X1557500D01*
X1545000Y900000D02*
Y925000D01*
X1532500Y820000D02*
X1557500D01*
X1545000Y807500D02*
Y832500D01*
X897500Y565000D02*
X922500D01*
X910000Y552500D02*
Y577500D01*
X1107500Y562500D02*
X1132500D01*
X1120000Y550000D02*
Y575000D01*
X368500Y96520D02*
X393500D01*
X381000Y84020D02*
Y109020D01*
X4157500Y310000D02*
X4182500D01*
X4170000Y297500D02*
Y322500D01*
X4157500Y990000D02*
X4182500D01*
X4170000Y977500D02*
Y1002500D01*
X4157500Y650000D02*
X4182500D01*
X4170000Y637500D02*
Y662500D01*
X4157500Y1370000D02*
X4182500D01*
X4170000Y1357500D02*
Y1382500D01*
X4157500Y1710000D02*
X4182500D01*
X4170000Y1697500D02*
Y1722500D01*
X757500Y100000D02*
X782500D01*
X770000Y87500D02*
Y112500D01*
X2117500Y100000D02*
X2142500D01*
X2130000Y87500D02*
Y112500D01*
X1777500Y100000D02*
X1802500D01*
X1790000Y87500D02*
Y112500D01*
X1437500Y100000D02*
X1462500D01*
X1450000Y87500D02*
Y112500D01*
X3177500Y100000D02*
X3202500D01*
X3190000Y87500D02*
Y112500D01*
X2837500Y100000D02*
X2862500D01*
X2850000Y87500D02*
Y112500D01*
X2497500Y100000D02*
X2522500D01*
X2510000Y87500D02*
Y112500D01*
X3557500Y100000D02*
X3582500D01*
X3570000Y87500D02*
Y112500D01*
X3897500Y100000D02*
X3922500D01*
X3910000Y87500D02*
Y112500D01*
X3897500Y2010000D02*
X3922500D01*
X3910000Y1997500D02*
Y2022500D01*
X3557500Y2010000D02*
X3582500D01*
X3570000Y1997500D02*
Y2022500D01*
X2497500Y2010000D02*
X2522500D01*
X2510000Y1997500D02*
Y2022500D01*
X2837500Y2010000D02*
X2862500D01*
X2850000Y1997500D02*
Y2022500D01*
X3177500Y2010000D02*
X3202500D01*
X3190000Y1997500D02*
Y2022500D01*
X1437500Y2010000D02*
X1462500D01*
X1450000Y1997500D02*
Y2022500D01*
X1777500Y2010000D02*
X1802500D01*
X1790000Y1997500D02*
Y2022500D01*
X2117500Y2010000D02*
X2142500D01*
X2130000Y1997500D02*
Y2022500D01*
X1097500Y2010000D02*
X1122500D01*
X1110000Y1997500D02*
Y2022500D01*
X757500Y2010000D02*
X782500D01*
X770000Y1997500D02*
Y2022500D01*
X417500Y2010000D02*
X442500D01*
X430000Y1997500D02*
Y2022500D01*
X87500Y1690000D02*
X112500D01*
X100000Y1677500D02*
Y1702500D01*
X87500Y420000D02*
X112500D01*
X100000Y407500D02*
Y432500D01*
X717500Y830000D02*
X742500D01*
X730000Y817500D02*
Y842500D01*
X1827500Y750000D02*
X1852500D01*
X1840000Y737500D02*
Y762500D01*
X1617500Y670000D02*
X1642500D01*
X1630000Y657500D02*
Y682500D01*
X1617500Y590000D02*
X1642500D01*
X1630000Y577500D02*
Y602500D01*
X1550000Y425000D02*
X1575000D01*
X1562500Y412500D02*
Y437500D01*
X1832500Y1027500D02*
X1857500D01*
X1845000Y1015000D02*
Y1040000D01*
X1827500Y1195000D02*
X1852500D01*
X1840000Y1182500D02*
Y1207500D01*
X1577500Y1210000D02*
X1602500D01*
X1590000Y1197500D02*
Y1222500D01*
X1407500Y947500D02*
X1432500D01*
X1420000Y935000D02*
Y960000D01*
X1410000Y1120000D02*
X1435000D01*
X1422500Y1107500D02*
Y1132500D01*
X1687500Y1400000D02*
X1712500D01*
X1700000Y1387500D02*
Y1412500D01*
X1037500Y900000D02*
X1062500D01*
X1050000Y887500D02*
Y912500D01*
X785000Y635000D02*
X810000D01*
X797500Y622500D02*
Y647500D01*
X820000Y495000D02*
X845000D01*
X832500Y482500D02*
Y507500D01*
X1037500Y770000D02*
X1062500D01*
X1050000Y757500D02*
Y782500D01*
X1397500Y530000D02*
X1422500D01*
X1410000Y517500D02*
Y542500D01*
X1397500Y650000D02*
X1422500D01*
X1410000Y637500D02*
Y662500D01*
X1277500Y530000D02*
X1302500D01*
X1290000Y517500D02*
Y542500D01*
X1277500Y650000D02*
X1302500D01*
X1290000Y637500D02*
Y662500D01*
X1037500Y640000D02*
X1062500D01*
X1050000Y627500D02*
Y652500D01*
X1727500Y560000D02*
X1752500D01*
X1740000Y547500D02*
Y572500D01*
X1126812Y422034D02*
X1151812D01*
X1139312Y409535D02*
Y434534D01*
X1226900Y855200D02*
X1251900D01*
X1239400Y842700D02*
Y867700D01*
X1147500Y855200D02*
X1172500D01*
X1160000Y842700D02*
Y867700D01*
X1262500Y335215D02*
X1287500D01*
X1275000Y322715D02*
Y347715D01*
X1217500Y1460000D02*
X1242500D01*
X1230000Y1447500D02*
Y1472500D01*
X1087500Y1460000D02*
X1112500D01*
X1100000Y1447500D02*
Y1472500D01*
%TF.MD5,3fe9ec9f8cbbd4a44e355a13955ae089*%
M02*
